<?xml version="1.0" encoding="UTF-8" standalone="no"?>
<!DOCTYPE svg PUBLIC "-//W3C//DTD SVG 1.1//EN"
 "http://www.w3.org/Graphics/SVG/1.1/DTD/svg11.dtd">
<!-- Generated by graphviz version 2.36.0 (20140111.2315)
 -->
<!-- Title: G Pages: 1 -->
<svg width="447pt" height="924pt"
 viewBox="0.00 0.00 447.00 924.00" xmlns="http://www.w3.org/2000/svg" xmlns:xlink="http://www.w3.org/1999/xlink">
<g id="graph0" class="graph" transform="scale(1 1) rotate(0) translate(4 920)">
<title>G</title>
<polygon fill="white" stroke="none" points="-4,4 -4,-920 443,-920 443,4 -4,4"/>
<!-- id = 1 -->
<g id="node1" class="node"><title>id = 1</title>
<ellipse fill="green" stroke="lightgray" cx="264" cy="-898" rx="32.2457" ry="18"/>
<text text-anchor="middle" x="264" y="-894.3" font-family="Times,serif" font-size="14.00">id = 1</text>
</g>
<!-- id = 2 -->
<g id="node2" class="node"><title>id = 2</title>
<ellipse fill="lightgray" stroke="lightgray" cx="174" cy="-810" rx="32.2457" ry="18"/>
<text text-anchor="middle" x="174" y="-806.3" font-family="Times,serif" font-size="14.00">id = 2</text>
</g>
<!-- id = 1&#45;&gt;id = 2 -->
<g id="edge1" class="edge"><title>id = 1&#45;&gt;id = 2</title>
<path fill="none" stroke="black" d="M232.607,-893.447C212.566,-889.383 187.991,-880.672 175,-862 170.235,-855.151 168.842,-846.435 168.984,-838.154"/>
<polygon fill="black" stroke="black" points="172.481,-838.333 169.847,-828.071 165.507,-837.736 172.481,-838.333"/>
<text text-anchor="middle" x="258" y="-850.3" font-family="Times,serif" font-size="14.00"> c_publisherGroupName:4139</text>
</g>
<!-- id = 3 -->
<g id="node3" class="node"><title>id = 3</title>
<ellipse fill="green" stroke="lightgray" cx="355" cy="-810" rx="32.2457" ry="18"/>
<text text-anchor="middle" x="355" y="-806.3" font-family="Times,serif" font-size="14.00">id = 3</text>
</g>
<!-- id = 1&#45;&gt;id = 3 -->
<g id="edge2" class="edge"><title>id = 1&#45;&gt;id = 3</title>
<path fill="none" stroke="black" d="M293.354,-890.227C309.555,-885.052 328.805,-876.302 341,-862 346.675,-855.344 350.065,-846.579 352.085,-838.197"/>
<polygon fill="black" stroke="black" points="355.533,-838.803 353.931,-828.33 348.652,-837.516 355.533,-838.803"/>
</g>
<!-- id = 6 -->
<g id="node4" class="node"><title>id = 6</title>
<ellipse fill="green" stroke="lightgray" cx="312" cy="-722" rx="32.2457" ry="18"/>
<text text-anchor="middle" x="312" y="-718.3" font-family="Times,serif" font-size="14.00">id = 6</text>
</g>
<!-- id = 3&#45;&gt;id = 6 -->
<g id="edge3" class="edge"><title>id = 3&#45;&gt;id = 6</title>
<path fill="none" stroke="black" d="M331.479,-797.168C322.752,-791.457 313.813,-783.71 309,-774 305.385,-766.706 304.747,-758.087 305.417,-750.03"/>
<polygon fill="black" stroke="black" points="308.911,-750.326 306.911,-739.922 301.987,-749.303 308.911,-750.326"/>
<text text-anchor="middle" x="344" y="-762.3" font-family="Times,serif" font-size="14.00"> c_dim4:786</text>
</g>
<!-- id = 7 -->
<g id="node5" class="node"><title>id = 7</title>
<ellipse fill="lightgray" stroke="lightgray" cx="397" cy="-722" rx="32.2457" ry="18"/>
<text text-anchor="middle" x="397" y="-718.3" font-family="Times,serif" font-size="14.00">id = 7</text>
</g>
<!-- id = 3&#45;&gt;id = 7 -->
<g id="edge4" class="edge"><title>id = 3&#45;&gt;id = 7</title>
<path fill="none" stroke="black" d="M369.584,-793.573C374.421,-787.79 379.467,-780.933 383,-774 386.768,-766.605 389.621,-758.075 391.735,-750.132"/>
<polygon fill="black" stroke="black" points="395.194,-750.712 394.103,-740.174 388.384,-749.093 395.194,-750.712"/>
</g>
<!-- id = 12 -->
<g id="node6" class="node"><title>id = 12</title>
<ellipse fill="green" stroke="lightgray" cx="222" cy="-634" rx="36.096" ry="18"/>
<text text-anchor="middle" x="222" y="-630.3" font-family="Times,serif" font-size="14.00">id = 12</text>
</g>
<!-- id = 6&#45;&gt;id = 12 -->
<g id="edge5" class="edge"><title>id = 6&#45;&gt;id = 12</title>
<path fill="none" stroke="black" d="M280.607,-717.447C260.566,-713.383 235.991,-704.672 223,-686 218.235,-679.151 216.842,-670.435 216.984,-662.154"/>
<polygon fill="black" stroke="black" points="220.481,-662.333 217.847,-652.071 213.507,-661.736 220.481,-662.333"/>
<text text-anchor="middle" x="306" y="-674.3" font-family="Times,serif" font-size="14.00"> c_publisherGroupName:4139</text>
</g>
<!-- id = 13 -->
<g id="node7" class="node"><title>id = 13</title>
<ellipse fill="lightgray" stroke="lightgray" cx="403" cy="-634" rx="36.096" ry="18"/>
<text text-anchor="middle" x="403" y="-630.3" font-family="Times,serif" font-size="14.00">id = 13</text>
</g>
<!-- id = 6&#45;&gt;id = 13 -->
<g id="edge6" class="edge"><title>id = 6&#45;&gt;id = 13</title>
<path fill="none" stroke="black" d="M337.594,-710.637C358.564,-701.941 385.356,-690.274 389,-686 394.675,-679.344 398.065,-670.579 400.085,-662.197"/>
<polygon fill="black" stroke="black" points="403.533,-662.803 401.931,-652.33 396.652,-661.516 403.533,-662.803"/>
</g>
<!-- id = 24 -->
<g id="node8" class="node"><title>id = 24</title>
<ellipse fill="green" stroke="lightgray" cx="174" cy="-546" rx="36.096" ry="18"/>
<text text-anchor="middle" x="174" y="-542.3" font-family="Times,serif" font-size="14.00">id = 24</text>
</g>
<!-- id = 12&#45;&gt;id = 24 -->
<g id="edge7" class="edge"><title>id = 12&#45;&gt;id = 24</title>
<path fill="none" stroke="black" d="M198.314,-620.27C190.117,-614.594 181.792,-607.11 177,-598 173.21,-590.795 171.752,-582.201 171.441,-574.14"/>
<polygon fill="black" stroke="black" points="174.943,-574.063 171.593,-564.012 167.943,-573.958 174.943,-574.063"/>
<text text-anchor="middle" x="212" y="-586.3" font-family="Times,serif" font-size="14.00"> c_dim4:786</text>
</g>
<!-- id = 25 -->
<g id="node9" class="node"><title>id = 25</title>
<ellipse fill="lightgray" stroke="lightgray" cx="265" cy="-546" rx="36.096" ry="18"/>
<text text-anchor="middle" x="265" y="-542.3" font-family="Times,serif" font-size="14.00">id = 25</text>
</g>
<!-- id = 12&#45;&gt;id = 25 -->
<g id="edge8" class="edge"><title>id = 12&#45;&gt;id = 25</title>
<path fill="none" stroke="black" d="M237.424,-617.299C242.343,-611.597 247.429,-604.86 251,-598 254.832,-590.638 257.703,-582.117 259.814,-574.173"/>
<polygon fill="black" stroke="black" points="263.276,-574.745 262.169,-564.208 256.463,-573.135 263.276,-574.745"/>
</g>
<!-- id = 48 -->
<g id="node10" class="node"><title>id = 48</title>
<ellipse fill="green" stroke="lightgray" cx="126" cy="-458" rx="36.096" ry="18"/>
<text text-anchor="middle" x="126" y="-454.3" font-family="Times,serif" font-size="14.00">id = 48</text>
</g>
<!-- id = 24&#45;&gt;id = 48 -->
<g id="edge9" class="edge"><title>id = 24&#45;&gt;id = 48</title>
<path fill="none" stroke="black" d="M150.314,-532.27C142.117,-526.594 133.792,-519.11 129,-510 125.21,-502.795 123.752,-494.201 123.441,-486.14"/>
<polygon fill="black" stroke="black" points="126.943,-486.063 123.593,-476.012 119.943,-485.958 126.943,-486.063"/>
<text text-anchor="middle" x="164" y="-498.3" font-family="Times,serif" font-size="14.00"> c_dim4:786</text>
</g>
<!-- id = 49 -->
<g id="node11" class="node"><title>id = 49</title>
<ellipse fill="lightgray" stroke="lightgray" cx="217" cy="-458" rx="36.096" ry="18"/>
<text text-anchor="middle" x="217" y="-454.3" font-family="Times,serif" font-size="14.00">id = 49</text>
</g>
<!-- id = 24&#45;&gt;id = 49 -->
<g id="edge10" class="edge"><title>id = 24&#45;&gt;id = 49</title>
<path fill="none" stroke="black" d="M189.424,-529.299C194.343,-523.597 199.429,-516.86 203,-510 206.832,-502.638 209.703,-494.117 211.814,-486.173"/>
<polygon fill="black" stroke="black" points="215.276,-486.745 214.169,-476.208 208.463,-485.135 215.276,-486.745"/>
</g>
<!-- id = 96 -->
<g id="node12" class="node"><title>id = 96</title>
<ellipse fill="lightgray" stroke="lightgray" cx="36" cy="-370" rx="36.096" ry="18"/>
<text text-anchor="middle" x="36" y="-366.3" font-family="Times,serif" font-size="14.00">id = 96</text>
</g>
<!-- id = 48&#45;&gt;id = 96 -->
<g id="edge11" class="edge"><title>id = 48&#45;&gt;id = 96</title>
<path fill="none" stroke="black" d="M91.0528,-452.686C71.7356,-448.331 49.2322,-439.582 37,-422 32.2347,-415.151 30.8416,-406.435 30.984,-398.154"/>
<polygon fill="black" stroke="black" points="34.4813,-398.333 31.8472,-388.071 27.5069,-397.736 34.4813,-398.333"/>
<text text-anchor="middle" x="120" y="-410.3" font-family="Times,serif" font-size="14.00"> c_publisherGroupName:4139</text>
</g>
<!-- id = 97 -->
<g id="node13" class="node"><title>id = 97</title>
<ellipse fill="green" stroke="lightgray" cx="217" cy="-370" rx="36.096" ry="18"/>
<text text-anchor="middle" x="217" y="-366.3" font-family="Times,serif" font-size="14.00">id = 97</text>
</g>
<!-- id = 48&#45;&gt;id = 97 -->
<g id="edge12" class="edge"><title>id = 48&#45;&gt;id = 97</title>
<path fill="none" stroke="black" d="M154.589,-446.926C173.607,-439.695 196.283,-429.878 203,-422 208.675,-415.344 212.065,-406.579 214.085,-398.197"/>
<polygon fill="black" stroke="black" points="217.533,-398.803 215.931,-388.33 210.652,-397.516 217.533,-398.803"/>
</g>
<!-- id = 194 -->
<g id="node14" class="node"><title>id = 194</title>
<ellipse fill="green" stroke="lightgray" cx="126" cy="-282" rx="40.4202" ry="18"/>
<text text-anchor="middle" x="126" y="-278.3" font-family="Times,serif" font-size="14.00">id = 194</text>
</g>
<!-- id = 97&#45;&gt;id = 194 -->
<g id="edge13" class="edge"><title>id = 97&#45;&gt;id = 194</title>
<path fill="none" stroke="black" d="M181.434,-365.607C160.697,-361.593 136.115,-352.878 123,-334 118.232,-327.137 117.38,-318.418 118.207,-310.138"/>
<polygon fill="black" stroke="black" points="121.695,-310.514 119.985,-300.058 114.801,-309.298 121.695,-310.514"/>
<text text-anchor="middle" x="206" y="-322.3" font-family="Times,serif" font-size="14.00"> c_publisherGroupName:4139</text>
</g>
<!-- id = 195 -->
<g id="node15" class="node"><title>id = 195</title>
<ellipse fill="lightgray" stroke="lightgray" cx="307" cy="-282" rx="40.4202" ry="18"/>
<text text-anchor="middle" x="307" y="-278.3" font-family="Times,serif" font-size="14.00">id = 195</text>
</g>
<!-- id = 97&#45;&gt;id = 195 -->
<g id="edge14" class="edge"><title>id = 97&#45;&gt;id = 195</title>
<path fill="none" stroke="black" d="M249.01,-361.116C264.319,-355.814 281.723,-347.292 293,-334 298.659,-327.33 302.045,-318.562 304.066,-310.18"/>
<polygon fill="black" stroke="black" points="307.512,-310.79 305.915,-300.316 300.632,-309.5 307.512,-310.79"/>
</g>
<!-- id = 388 -->
<g id="node16" class="node"><title>id = 388</title>
<ellipse fill="lightgray" stroke="lightgray" cx="84" cy="-194" rx="40.4202" ry="18"/>
<text text-anchor="middle" x="84" y="-190.3" font-family="Times,serif" font-size="14.00">id = 388</text>
</g>
<!-- id = 194&#45;&gt;id = 388 -->
<g id="edge15" class="edge"><title>id = 194&#45;&gt;id = 388</title>
<path fill="none" stroke="black" d="M107.372,-265.948C101.562,-260.297 95.7098,-253.427 92,-246 88.3799,-238.753 86.3189,-230.265 85.1672,-222.316"/>
<polygon fill="black" stroke="black" points="88.6438,-221.909 84.1225,-212.327 81.6818,-222.637 88.6438,-221.909"/>
<text text-anchor="middle" x="127" y="-234.3" font-family="Times,serif" font-size="14.00"> c_dim4:786</text>
</g>
<!-- id = 389 -->
<g id="node17" class="node"><title>id = 389</title>
<ellipse fill="green" stroke="lightgray" cx="184" cy="-194" rx="40.4202" ry="18"/>
<text text-anchor="middle" x="184" y="-190.3" font-family="Times,serif" font-size="14.00">id = 389</text>
</g>
<!-- id = 194&#45;&gt;id = 389 -->
<g id="edge16" class="edge"><title>id = 194&#45;&gt;id = 389</title>
<path fill="none" stroke="black" d="M144.302,-265.846C150.479,-260.088 157.054,-253.178 162,-246 167.135,-238.549 171.461,-229.707 174.882,-221.496"/>
<polygon fill="black" stroke="black" points="178.24,-222.517 178.599,-211.928 171.715,-219.982 178.24,-222.517"/>
</g>
<!-- id = 778 -->
<g id="node18" class="node"><title>id = 778</title>
<ellipse fill="green" stroke="lightgray" cx="134" cy="-106" rx="40.4202" ry="18"/>
<text text-anchor="middle" x="134" y="-102.3" font-family="Times,serif" font-size="14.00">id = 778</text>
</g>
<!-- id = 389&#45;&gt;id = 778 -->
<g id="edge17" class="edge"><title>id = 389&#45;&gt;id = 778</title>
<path fill="none" stroke="black" d="M165.99,-177.61C160.229,-171.932 154.25,-165.132 150,-158 145.658,-150.714 142.376,-142.129 139.952,-134.101"/>
<polygon fill="black" stroke="black" points="143.31,-133.113 137.324,-124.371 136.553,-134.938 143.31,-133.113"/>
<text text-anchor="middle" x="185" y="-146.3" font-family="Times,serif" font-size="14.00"> c_dim1:299</text>
</g>
<!-- id = 779 -->
<g id="node19" class="node"><title>id = 779</title>
<ellipse fill="lightgray" stroke="lightgray" cx="234" cy="-106" rx="40.4202" ry="18"/>
<text text-anchor="middle" x="234" y="-102.3" font-family="Times,serif" font-size="14.00">id = 779</text>
</g>
<!-- id = 389&#45;&gt;id = 779 -->
<g id="edge18" class="edge"><title>id = 389&#45;&gt;id = 779</title>
<path fill="none" stroke="black" d="M203.246,-177.865C209.36,-172.207 215.654,-165.355 220,-158 224.222,-150.855 227.208,-142.397 229.304,-134.445"/>
<polygon fill="black" stroke="black" points="232.776,-134.961 231.577,-124.434 225.95,-133.411 232.776,-134.961"/>
</g>
<!-- id = 1556 -->
<g id="node20" class="node"><title>id = 1556</title>
<ellipse fill="green" stroke="lightgray" cx="80" cy="-18" rx="45.244" ry="18"/>
<text text-anchor="middle" x="80" y="-14.3" font-family="Times,serif" font-size="14.00">id = 1556</text>
</g>
<!-- id = 778&#45;&gt;id = 1556 -->
<g id="edge19" class="edge"><title>id = 778&#45;&gt;id = 1556</title>
<path fill="none" stroke="black" d="M119.293,-88.8821C114.432,-83.1459 109.198,-76.4946 105,-70 99.9982,-62.2622 95.3172,-53.3788 91.3891,-45.2167"/>
<polygon fill="black" stroke="black" points="94.5331,-43.6769 87.1496,-36.0785 88.1832,-46.6228 94.5331,-43.6769"/>
<text text-anchor="middle" x="140" y="-58.3" font-family="Times,serif" font-size="14.00"> c_dim1:299</text>
</g>
<!-- id = 1557 -->
<g id="node21" class="node"><title>id = 1557</title>
<ellipse fill="lightgray" stroke="lightgray" cx="189" cy="-18" rx="45.244" ry="18"/>
<text text-anchor="middle" x="189" y="-14.3" font-family="Times,serif" font-size="14.00">id = 1557</text>
</g>
<!-- id = 778&#45;&gt;id = 1557 -->
<g id="edge20" class="edge"><title>id = 778&#45;&gt;id = 1557</title>
<path fill="none" stroke="black" d="M155.528,-90.6492C162.627,-84.9677 169.981,-77.8992 175,-70 179.57,-62.8074 182.667,-54.1266 184.757,-45.9821"/>
<polygon fill="black" stroke="black" points="188.2,-46.6201 186.903,-36.105 181.36,-45.1341 188.2,-46.6201"/>
</g>
</g>
</svg>
