<?xml version="1.0" encoding="UTF-8" standalone="no"?>
<!DOCTYPE svg PUBLIC "-//W3C//DTD SVG 1.1//EN"
 "http://www.w3.org/Graphics/SVG/1.1/DTD/svg11.dtd">
<!-- Generated by graphviz version 2.36.0 (20140111.2315)
 -->
<!-- Title: G Pages: 1 -->
<svg width="527pt" height="924pt"
 viewBox="0.00 0.00 527.00 924.00" xmlns="http://www.w3.org/2000/svg" xmlns:xlink="http://www.w3.org/1999/xlink">
<g id="graph0" class="graph" transform="scale(1 1) rotate(0) translate(4 920)">
<title>G</title>
<polygon fill="white" stroke="none" points="-4,4 -4,-920 523,-920 523,4 -4,4"/>
<!-- id = 1 -->
<g id="node1" class="node"><title>id = 1</title>
<ellipse fill="green" stroke="lightgray" cx="396" cy="-898" rx="32.2457" ry="18"/>
<text text-anchor="middle" x="396" y="-894.3" font-family="Times,serif" font-size="14.00">id = 1</text>
</g>
<!-- id = 2 -->
<g id="node2" class="node"><title>id = 2</title>
<ellipse fill="green" stroke="lightgray" cx="306" cy="-810" rx="32.2457" ry="18"/>
<text text-anchor="middle" x="306" y="-806.3" font-family="Times,serif" font-size="14.00">id = 2</text>
</g>
<!-- id = 1&#45;&gt;id = 2 -->
<g id="edge1" class="edge"><title>id = 1&#45;&gt;id = 2</title>
<path fill="none" stroke="black" d="M364.607,-893.447C344.566,-889.383 319.991,-880.672 307,-862 302.235,-855.151 300.842,-846.435 300.984,-838.154"/>
<polygon fill="black" stroke="black" points="304.481,-838.333 301.847,-828.071 297.507,-837.736 304.481,-838.333"/>
<text text-anchor="middle" x="390" y="-850.3" font-family="Times,serif" font-size="14.00"> c_publisherGroupName:4139</text>
</g>
<!-- id = 3 -->
<g id="node3" class="node"><title>id = 3</title>
<ellipse fill="lightgray" stroke="lightgray" cx="487" cy="-810" rx="32.2457" ry="18"/>
<text text-anchor="middle" x="487" y="-806.3" font-family="Times,serif" font-size="14.00">id = 3</text>
</g>
<!-- id = 1&#45;&gt;id = 3 -->
<g id="edge2" class="edge"><title>id = 1&#45;&gt;id = 3</title>
<path fill="none" stroke="black" d="M425.354,-890.227C441.555,-885.052 460.805,-876.302 473,-862 478.675,-855.344 482.065,-846.579 484.085,-838.197"/>
<polygon fill="black" stroke="black" points="487.533,-838.803 485.931,-828.33 480.652,-837.516 487.533,-838.803"/>
</g>
<!-- id = 4 -->
<g id="node4" class="node"><title>id = 4</title>
<ellipse fill="green" stroke="lightgray" cx="216" cy="-722" rx="32.2457" ry="18"/>
<text text-anchor="middle" x="216" y="-718.3" font-family="Times,serif" font-size="14.00">id = 4</text>
</g>
<!-- id = 2&#45;&gt;id = 4 -->
<g id="edge3" class="edge"><title>id = 2&#45;&gt;id = 4</title>
<path fill="none" stroke="black" d="M274.607,-805.447C254.566,-801.383 229.991,-792.672 217,-774 212.235,-767.151 210.842,-758.435 210.984,-750.154"/>
<polygon fill="black" stroke="black" points="214.481,-750.333 211.847,-740.071 207.507,-749.736 214.481,-750.333"/>
<text text-anchor="middle" x="300" y="-762.3" font-family="Times,serif" font-size="14.00"> c_publisherGroupName:4139</text>
</g>
<!-- id = 5 -->
<g id="node5" class="node"><title>id = 5</title>
<ellipse fill="lightgray" stroke="lightgray" cx="397" cy="-722" rx="32.2457" ry="18"/>
<text text-anchor="middle" x="397" y="-718.3" font-family="Times,serif" font-size="14.00">id = 5</text>
</g>
<!-- id = 2&#45;&gt;id = 5 -->
<g id="edge4" class="edge"><title>id = 2&#45;&gt;id = 5</title>
<path fill="none" stroke="black" d="M335.354,-802.227C351.555,-797.052 370.805,-788.302 383,-774 388.675,-767.344 392.065,-758.579 394.085,-750.197"/>
<polygon fill="black" stroke="black" points="397.533,-750.803 395.931,-740.33 390.652,-749.516 397.533,-750.803"/>
</g>
<!-- id = 8 -->
<g id="node6" class="node"><title>id = 8</title>
<ellipse fill="green" stroke="lightgray" cx="126" cy="-634" rx="32.2457" ry="18"/>
<text text-anchor="middle" x="126" y="-630.3" font-family="Times,serif" font-size="14.00">id = 8</text>
</g>
<!-- id = 4&#45;&gt;id = 8 -->
<g id="edge5" class="edge"><title>id = 4&#45;&gt;id = 8</title>
<path fill="none" stroke="black" d="M184.607,-717.447C164.566,-713.383 139.991,-704.672 127,-686 122.235,-679.151 120.842,-670.435 120.984,-662.154"/>
<polygon fill="black" stroke="black" points="124.481,-662.333 121.847,-652.071 117.507,-661.736 124.481,-662.333"/>
<text text-anchor="middle" x="210" y="-674.3" font-family="Times,serif" font-size="14.00"> c_publisherGroupName:4139</text>
</g>
<!-- id = 9 -->
<g id="node7" class="node"><title>id = 9</title>
<ellipse fill="lightgray" stroke="lightgray" cx="307" cy="-634" rx="32.2457" ry="18"/>
<text text-anchor="middle" x="307" y="-630.3" font-family="Times,serif" font-size="14.00">id = 9</text>
</g>
<!-- id = 4&#45;&gt;id = 9 -->
<g id="edge6" class="edge"><title>id = 4&#45;&gt;id = 9</title>
<path fill="none" stroke="black" d="M245.354,-714.227C261.555,-709.052 280.805,-700.302 293,-686 298.675,-679.344 302.065,-670.579 304.085,-662.197"/>
<polygon fill="black" stroke="black" points="307.533,-662.803 305.931,-652.33 300.652,-661.516 307.533,-662.803"/>
</g>
<!-- id = 16 -->
<g id="node8" class="node"><title>id = 16</title>
<ellipse fill="lightgray" stroke="lightgray" cx="36" cy="-546" rx="36.096" ry="18"/>
<text text-anchor="middle" x="36" y="-542.3" font-family="Times,serif" font-size="14.00">id = 16</text>
</g>
<!-- id = 8&#45;&gt;id = 16 -->
<g id="edge7" class="edge"><title>id = 8&#45;&gt;id = 16</title>
<path fill="none" stroke="black" d="M94.6068,-629.447C74.5663,-625.383 49.9908,-616.672 37,-598 32.2347,-591.151 30.8416,-582.435 30.984,-574.154"/>
<polygon fill="black" stroke="black" points="34.4813,-574.333 31.8472,-564.071 27.5069,-573.736 34.4813,-574.333"/>
<text text-anchor="middle" x="120" y="-586.3" font-family="Times,serif" font-size="14.00"> c_publisherGroupName:4139</text>
</g>
<!-- id = 17 -->
<g id="node9" class="node"><title>id = 17</title>
<ellipse fill="green" stroke="lightgray" cx="217" cy="-546" rx="36.096" ry="18"/>
<text text-anchor="middle" x="217" y="-542.3" font-family="Times,serif" font-size="14.00">id = 17</text>
</g>
<!-- id = 8&#45;&gt;id = 17 -->
<g id="edge8" class="edge"><title>id = 8&#45;&gt;id = 17</title>
<path fill="none" stroke="black" d="M155.354,-626.227C171.555,-621.052 190.805,-612.302 203,-598 208.675,-591.344 212.065,-582.579 214.085,-574.197"/>
<polygon fill="black" stroke="black" points="217.533,-574.803 215.931,-564.33 210.652,-573.516 217.533,-574.803"/>
</g>
<!-- id = 34 -->
<g id="node10" class="node"><title>id = 34</title>
<ellipse fill="green" stroke="lightgray" cx="126" cy="-458" rx="36.096" ry="18"/>
<text text-anchor="middle" x="126" y="-454.3" font-family="Times,serif" font-size="14.00">id = 34</text>
</g>
<!-- id = 17&#45;&gt;id = 34 -->
<g id="edge9" class="edge"><title>id = 17&#45;&gt;id = 34</title>
<path fill="none" stroke="black" d="M181.434,-541.607C160.697,-537.593 136.115,-528.878 123,-510 118.232,-503.137 117.38,-494.418 118.207,-486.138"/>
<polygon fill="black" stroke="black" points="121.695,-486.514 119.985,-476.058 114.801,-485.298 121.695,-486.514"/>
<text text-anchor="middle" x="206" y="-498.3" font-family="Times,serif" font-size="14.00"> c_publisherGroupName:4139</text>
</g>
<!-- id = 35 -->
<g id="node11" class="node"><title>id = 35</title>
<ellipse fill="lightgray" stroke="lightgray" cx="307" cy="-458" rx="36.096" ry="18"/>
<text text-anchor="middle" x="307" y="-454.3" font-family="Times,serif" font-size="14.00">id = 35</text>
</g>
<!-- id = 17&#45;&gt;id = 35 -->
<g id="edge10" class="edge"><title>id = 17&#45;&gt;id = 35</title>
<path fill="none" stroke="black" d="M249.01,-537.116C264.319,-531.814 281.723,-523.292 293,-510 298.659,-503.33 302.045,-494.562 304.066,-486.18"/>
<polygon fill="black" stroke="black" points="307.512,-486.79 305.915,-476.316 300.632,-485.5 307.512,-486.79"/>
</g>
<!-- id = 68 -->
<g id="node12" class="node"><title>id = 68</title>
<ellipse fill="lightgray" stroke="lightgray" cx="67" cy="-370" rx="36.096" ry="18"/>
<text text-anchor="middle" x="67" y="-366.3" font-family="Times,serif" font-size="14.00">id = 68</text>
</g>
<!-- id = 34&#45;&gt;id = 68 -->
<g id="edge11" class="edge"><title>id = 34&#45;&gt;id = 68</title>
<path fill="none" stroke="black" d="M97.2362,-446.764C86.0883,-441.24 74.4699,-433.203 68,-422 63.9351,-414.961 62.6564,-406.414 62.6885,-398.345"/>
<polygon fill="black" stroke="black" points="66.1931,-398.389 63.3617,-388.18 59.2084,-397.927 66.1931,-398.389"/>
<text text-anchor="middle" x="119.5" y="-410.3" font-family="Times,serif" font-size="14.00"> c_qualityScore:11</text>
</g>
<!-- id = 69 -->
<g id="node13" class="node"><title>id = 69</title>
<ellipse fill="green" stroke="lightgray" cx="185" cy="-370" rx="36.096" ry="18"/>
<text text-anchor="middle" x="185" y="-366.3" font-family="Times,serif" font-size="14.00">id = 69</text>
</g>
<!-- id = 34&#45;&gt;id = 69 -->
<g id="edge12" class="edge"><title>id = 34&#45;&gt;id = 69</title>
<path fill="none" stroke="black" d="M148.708,-443.689C156.785,-437.941 165.283,-430.56 171,-422 175.733,-414.913 178.874,-406.262 180.956,-398.111"/>
<polygon fill="black" stroke="black" points="184.404,-398.721 183.066,-388.211 177.558,-397.262 184.404,-398.721"/>
</g>
<!-- id = 138 -->
<g id="node14" class="node"><title>id = 138</title>
<ellipse fill="lightgray" stroke="lightgray" cx="95" cy="-282" rx="40.4202" ry="18"/>
<text text-anchor="middle" x="95" y="-278.3" font-family="Times,serif" font-size="14.00">id = 138</text>
</g>
<!-- id = 69&#45;&gt;id = 138 -->
<g id="edge13" class="edge"><title>id = 69&#45;&gt;id = 138</title>
<path fill="none" stroke="black" d="M150.053,-364.686C130.736,-360.331 108.232,-351.582 96,-334 91.2347,-327.151 89.8416,-318.435 89.984,-310.154"/>
<polygon fill="black" stroke="black" points="93.4813,-310.333 90.8472,-300.071 86.5069,-309.736 93.4813,-310.333"/>
<text text-anchor="middle" x="179" y="-322.3" font-family="Times,serif" font-size="14.00"> c_publisherGroupName:4139</text>
</g>
<!-- id = 139 -->
<g id="node15" class="node"><title>id = 139</title>
<ellipse fill="green" stroke="lightgray" cx="276" cy="-282" rx="40.4202" ry="18"/>
<text text-anchor="middle" x="276" y="-278.3" font-family="Times,serif" font-size="14.00">id = 139</text>
</g>
<!-- id = 69&#45;&gt;id = 139 -->
<g id="edge14" class="edge"><title>id = 69&#45;&gt;id = 139</title>
<path fill="none" stroke="black" d="M217.037,-361.346C232.639,-356.079 250.472,-347.52 262,-334 267.675,-327.344 271.065,-318.579 273.085,-310.197"/>
<polygon fill="black" stroke="black" points="276.533,-310.803 274.931,-300.33 269.652,-309.516 276.533,-310.803"/>
</g>
<!-- id = 278 -->
<g id="node16" class="node"><title>id = 278</title>
<ellipse fill="green" stroke="lightgray" cx="217" cy="-194" rx="40.4202" ry="18"/>
<text text-anchor="middle" x="217" y="-190.3" font-family="Times,serif" font-size="14.00">id = 278</text>
</g>
<!-- id = 139&#45;&gt;id = 278 -->
<g id="edge15" class="edge"><title>id = 139&#45;&gt;id = 278</title>
<path fill="none" stroke="black" d="M245.714,-269.995C235.043,-264.503 224.176,-256.694 218,-246 213.935,-238.961 212.656,-230.414 212.688,-222.345"/>
<polygon fill="black" stroke="black" points="216.193,-222.389 213.362,-212.18 209.208,-221.927 216.193,-222.389"/>
<text text-anchor="middle" x="269.5" y="-234.3" font-family="Times,serif" font-size="14.00"> c_qualityScore:11</text>
</g>
<!-- id = 279 -->
<g id="node17" class="node"><title>id = 279</title>
<ellipse fill="lightgray" stroke="lightgray" cx="335" cy="-194" rx="40.4202" ry="18"/>
<text text-anchor="middle" x="335" y="-190.3" font-family="Times,serif" font-size="14.00">id = 279</text>
</g>
<!-- id = 139&#45;&gt;id = 279 -->
<g id="edge16" class="edge"><title>id = 139&#45;&gt;id = 279</title>
<path fill="none" stroke="black" d="M299.641,-267.018C307.434,-261.372 315.503,-254.231 321,-246 325.733,-238.913 328.874,-230.262 330.956,-222.111"/>
<polygon fill="black" stroke="black" points="334.404,-222.721 333.066,-212.211 327.558,-221.262 334.404,-222.721"/>
</g>
<!-- id = 556 -->
<g id="node18" class="node"><title>id = 556</title>
<ellipse fill="lightgray" stroke="lightgray" cx="127" cy="-106" rx="40.4202" ry="18"/>
<text text-anchor="middle" x="127" y="-102.3" font-family="Times,serif" font-size="14.00">id = 556</text>
</g>
<!-- id = 278&#45;&gt;id = 556 -->
<g id="edge17" class="edge"><title>id = 278&#45;&gt;id = 556</title>
<path fill="none" stroke="black" d="M178.882,-187.938C160.324,-183.356 139.568,-174.628 128,-158 123.235,-151.151 121.842,-142.435 121.984,-134.154"/>
<polygon fill="black" stroke="black" points="125.481,-134.333 122.847,-124.071 118.507,-133.736 125.481,-134.333"/>
<text text-anchor="middle" x="211" y="-146.3" font-family="Times,serif" font-size="14.00"> c_publisherGroupName:4139</text>
</g>
<!-- id = 557 -->
<g id="node19" class="node"><title>id = 557</title>
<ellipse fill="green" stroke="lightgray" cx="308" cy="-106" rx="40.4202" ry="18"/>
<text text-anchor="middle" x="308" y="-102.3" font-family="Times,serif" font-size="14.00">id = 557</text>
</g>
<!-- id = 278&#45;&gt;id = 557 -->
<g id="edge18" class="edge"><title>id = 278&#45;&gt;id = 557</title>
<path fill="none" stroke="black" d="M251.766,-184.398C266.681,-179.072 283.139,-170.738 294,-158 299.675,-151.344 303.065,-142.579 305.085,-134.197"/>
<polygon fill="black" stroke="black" points="308.533,-134.803 306.931,-124.33 301.652,-133.516 308.533,-134.803"/>
</g>
<!-- id = 1114 -->
<g id="node20" class="node"><title>id = 1114</title>
<ellipse fill="green" stroke="lightgray" cx="218" cy="-18" rx="45.244" ry="18"/>
<text text-anchor="middle" x="218" y="-14.3" font-family="Times,serif" font-size="14.00">id = 1114</text>
</g>
<!-- id = 557&#45;&gt;id = 1114 -->
<g id="edge19" class="edge"><title>id = 557&#45;&gt;id = 1114</title>
<path fill="none" stroke="black" d="M269.882,-99.9376C251.324,-95.3559 230.568,-86.6276 219,-70 214.235,-63.1507 212.842,-54.4349 212.984,-46.1542"/>
<polygon fill="black" stroke="black" points="216.481,-46.3335 213.847,-36.0713 209.507,-45.7363 216.481,-46.3335"/>
<text text-anchor="middle" x="302" y="-58.3" font-family="Times,serif" font-size="14.00"> c_publisherGroupName:4139</text>
</g>
<!-- id = 1115 -->
<g id="node21" class="node"><title>id = 1115</title>
<ellipse fill="lightgray" stroke="lightgray" cx="399" cy="-18" rx="45.244" ry="18"/>
<text text-anchor="middle" x="399" y="-14.3" font-family="Times,serif" font-size="14.00">id = 1115</text>
</g>
<!-- id = 557&#45;&gt;id = 1115 -->
<g id="edge20" class="edge"><title>id = 557&#45;&gt;id = 1115</title>
<path fill="none" stroke="black" d="M342.766,-96.3981C357.681,-91.072 374.139,-82.7381 385,-70 390.675,-63.3441 394.065,-54.5793 396.085,-46.197"/>
<polygon fill="black" stroke="black" points="399.533,-46.8026 397.931,-36.3296 392.652,-45.5156 399.533,-46.8026"/>
</g>
</g>
</svg>
